<svg width="20" height="21" viewBox="0 0 20 21" fill="none" xmlns="http://www.w3.org/2000/svg">
<g id="icon">
<path id="Arrow 2" d="M2 9.75C1.58579 9.75 1.25 10.0858 1.25 10.5C1.25 10.9142 1.58579 11.25 2 11.25V9.75ZM19.5303 11.0303C19.8232 10.7374 19.8232 10.2626 19.5303 9.96967L14.7574 5.1967C14.4645 4.90381 13.9896 4.90381 13.6967 5.1967C13.4038 5.48959 13.4038 5.96447 13.6967 6.25736L17.9393 10.5L13.6967 14.7426C13.4038 15.0355 13.4038 15.5104 13.6967 15.8033C13.9896 16.0962 14.4645 16.0962 14.7574 15.8033L19.5303 11.0303ZM2 11.25H19V9.75H2V11.25Z" fill="#A6A9B5"/>
</g>
</svg>
