<svg width="20" height="21" viewBox="0 0 20 21" fill="none" xmlns="http://www.w3.org/2000/svg">
<g id="icon">
<path id="Icon" d="M2.56365 6.73601L6.13701 9.28837C6.32295 9.42118 6.41592 9.48759 6.51322 9.50289C6.59884 9.51635 6.68652 9.50278 6.76406 9.46407C6.85219 9.42008 6.92074 9.32868 7.05784 9.14588L7.81292 8.13909C7.85169 8.0874 7.87108 8.06155 7.89386 8.03925C7.91409 8.01945 7.93629 8.00177 7.9601 7.98647C7.98693 7.96924 8.01645 7.95612 8.0755 7.92988L11.2993 6.49707C11.433 6.43767 11.4998 6.40798 11.5502 6.3616C11.5947 6.32057 11.6298 6.27033 11.653 6.21436C11.6792 6.15108 11.684 6.07812 11.6938 5.93221L11.9298 2.3915M11.2503 11.7503L13.4303 12.6846C13.6833 12.793 13.8097 12.8472 13.8767 12.9372C13.9355 13.0162 13.9644 13.1135 13.9583 13.2117C13.9514 13.3237 13.8751 13.4382 13.7224 13.6672L12.6982 15.2035C12.6259 15.312 12.5897 15.3663 12.5419 15.4056C12.4996 15.4403 12.4508 15.4664 12.3984 15.4824C12.3392 15.5003 12.274 15.5003 12.1435 15.5003H10.4808C10.308 15.5003 10.2217 15.5003 10.1481 15.4714C10.0832 15.4459 10.0258 15.4045 9.98101 15.351C9.93034 15.2904 9.90302 15.2084 9.84838 15.0445L9.25432 13.2623C9.22209 13.1656 9.20597 13.1173 9.20173 13.0681C9.19797 13.0246 9.20109 12.9807 9.21097 12.9381C9.22212 12.8901 9.24491 12.8445 9.29049 12.7533L9.74175 11.8508C9.83343 11.6674 9.87928 11.5758 9.94989 11.5188C10.0121 11.4687 10.0875 11.4375 10.1669 11.4289C10.2571 11.4193 10.3544 11.4517 10.5489 11.5165L11.2503 11.7503ZM18.3337 10.5003C18.3337 15.1027 14.6027 18.8337 10.0003 18.8337C5.39795 18.8337 1.66699 15.1027 1.66699 10.5003C1.66699 5.89795 5.39795 2.16699 10.0003 2.16699C14.6027 2.16699 18.3337 5.89795 18.3337 10.5003Z" stroke="#A3B1E3" stroke-width="1.5" stroke-linecap="round" stroke-linejoin="round"/>
</g>
</svg>
