<svg width="20" height="20" viewBox="0 0 20 20" fill="none" xmlns="http://www.w3.org/2000/svg">
<g id="icon">
<path id="Icon" d="M7.5 17.7223V11.5556C7.5 11.0889 7.5 10.8555 7.59083 10.6773C7.67072 10.5205 7.79821 10.393 7.95501 10.3131C8.13327 10.2223 8.36662 10.2223 8.83333 10.2223H11.1667C11.6334 10.2223 11.8667 10.2223 12.045 10.3131C12.2018 10.393 12.3293 10.5205 12.4092 10.6773C12.5 10.8555 12.5 11.0889 12.5 11.5556V17.7223M9.18141 2.52562L3.52949 6.92156C3.15168 7.21541 2.96278 7.36234 2.82669 7.54634C2.70614 7.70933 2.61633 7.89294 2.56169 8.08817C2.5 8.30856 2.5 8.54787 2.5 9.0265V15.0556C2.5 15.989 2.5 16.4557 2.68166 16.8123C2.84144 17.1259 3.09641 17.3808 3.41002 17.5406C3.76654 17.7223 4.23325 17.7223 5.16667 17.7223H14.8333C15.7668 17.7223 16.2335 17.7223 16.59 17.5406C16.9036 17.3808 17.1586 17.1259 17.3183 16.8123C17.5 16.4557 17.5 15.989 17.5 15.0556V9.0265C17.5 8.54787 17.5 8.30856 17.4383 8.08817C17.3837 7.89294 17.2939 7.70933 17.1733 7.54634C17.0372 7.36234 16.8483 7.21541 16.4705 6.92156L10.8186 2.52562C10.5258 2.29791 10.3794 2.18406 10.2178 2.14029C10.0752 2.10167 9.92484 2.10167 9.78221 2.14029C9.62057 2.18406 9.47418 2.29791 9.18141 2.52562Z" stroke="#2042B9" stroke-width="1.5" stroke-linecap="round" stroke-linejoin="round"/>
</g>
</svg>
