<svg width="20" height="20" viewBox="0 0 20 20" fill="none" xmlns="http://www.w3.org/2000/svg">
<g id="icon">
<path id="logout" fill-rule="evenodd" clip-rule="evenodd" d="M12.182 6.53434C12.067 5.21806 11.7893 4.5645 11.2939 4.17693C10.7566 3.75657 9.78358 3.49976 7.87601 3.49976C5.32467 3.49976 4.4537 3.95563 4.03902 4.66839C3.80195 5.07586 3.65409 5.66001 3.5772 6.53257C3.50064 7.40134 3.5 8.46585 3.5 9.79976C3.5 11.1337 3.50064 12.1982 3.5772 13.067C3.65409 13.9395 3.80195 14.5237 4.03902 14.9311C4.4537 15.6439 5.32467 16.0998 7.87601 16.0998C9.78358 16.0998 10.7566 15.8429 11.2939 15.4226C11.7893 15.035 12.067 14.3815 12.182 13.0652C12.218 12.6525 12.5817 12.3472 12.9943 12.3833C13.407 12.4193 13.7123 12.783 13.6763 13.1956C13.553 14.6079 13.2279 15.814 12.2182 16.604C11.2504 17.3612 9.81602 17.5998 7.87601 17.5998C5.30134 17.5998 3.6093 17.1753 2.74249 15.6855C2.3388 14.9916 2.16628 14.1438 2.08299 13.1986C1.99999 12.2568 2 11.1277 2 9.82935V9.79976V9.77017C2 8.47182 1.99999 7.34273 2.08299 6.40089C2.16628 5.45569 2.3388 4.60792 2.74249 3.91407C3.6093 2.42418 5.30134 1.99976 7.87601 1.99976C9.81602 1.99976 11.2504 2.23834 12.2182 2.99553C13.2279 3.7855 13.553 4.99162 13.6763 6.40388C13.7123 6.81652 13.407 7.18024 12.9943 7.21627C12.5817 7.25229 12.218 6.94698 12.182 6.53434ZM14.2205 7.12577C14.5206 6.84032 14.9953 6.85224 15.2808 7.1524L17.3944 9.37486C17.6697 9.66441 17.6697 10.119 17.3944 10.4086L15.2808 12.631C14.9953 12.9312 14.5206 12.9431 14.2205 12.6577C13.9203 12.3722 13.9084 11.8975 14.1938 11.5973L15.1026 10.6417H8.15728C7.74307 10.6417 7.40728 10.3059 7.40728 9.89169C7.40728 9.47747 7.74307 9.14169 8.15728 9.14169H15.1026L14.1938 8.18609C13.9084 7.88594 13.9203 7.41122 14.2205 7.12577Z" fill="#E44461"/>
</g>
</svg>
