<svg width="20" height="21" viewBox="0 0 20 21" fill="none" xmlns="http://www.w3.org/2000/svg">
<g id="icon">
<path id="Vector" d="M15.25 19.5H4.75C4.28587 19.5 3.84075 19.3141 3.51256 18.9831C3.18437 18.6522 3 18.2033 3 17.7353V11.2647C3 10.7967 3.18437 10.3478 3.51256 10.0169C3.84075 9.68592 4.28587 9.5 4.75 9.5H15.25C15.7141 9.5 16.1592 9.68592 16.4874 10.0169C16.8156 10.3478 17 10.7967 17 11.2647V17.7353C17 18.2033 16.8156 18.6522 16.4874 18.9831C16.1592 19.3141 15.7141 19.5 15.25 19.5ZM4.75 10.6765C4.59529 10.6765 4.44692 10.7384 4.33752 10.8488C4.22812 10.9591 4.16667 11.1087 4.16667 11.2647V17.7353C4.16667 17.8913 4.22812 18.0409 4.33752 18.1512C4.44692 18.2616 4.59529 18.3235 4.75 18.3235H15.25C15.4047 18.3235 15.5531 18.2616 15.6625 18.1512C15.7719 18.0409 15.8333 17.8913 15.8333 17.7353V11.2647C15.8333 11.1087 15.7719 10.9591 15.6625 10.8488C15.5531 10.7384 15.4047 10.6765 15.25 10.6765H4.75Z" fill="#A3B1E3"/>
<path id="Vector_2" d="M14.9885 10.5H5.21072C5.04864 10.5 4.89321 10.4368 4.7786 10.3243C4.66399 10.2117 4.59961 10.0591 4.59961 9.9V6.3C4.59961 5.02696 5.11469 3.80606 6.03153 2.90589C6.94838 2.00571 8.19188 1.5 9.4885 1.5H10.7107C12.0073 1.5 13.2508 2.00571 14.1677 2.90589C15.0845 3.80606 15.5996 5.02696 15.5996 6.3V9.9C15.5996 10.0591 15.5352 10.2117 15.4206 10.3243C15.306 10.4368 15.1506 10.5 14.9885 10.5ZM5.82183 9.3H14.3774V6.3C14.3774 5.34522 13.9911 4.42955 13.3034 3.75442C12.6158 3.07928 11.6832 2.7 10.7107 2.7H9.4885C8.51604 2.7 7.58341 3.07928 6.89577 3.75442C6.20814 4.42955 5.82183 5.34522 5.82183 6.3V9.3Z" fill="#A3B1E3"/>
<path id="Vector_3" d="M10 15C9.80222 15 9.60888 14.9414 9.44443 14.8315C9.27998 14.7216 9.15181 14.5654 9.07612 14.3827C9.00043 14.2 8.98063 13.9989 9.01922 13.8049C9.0578 13.6109 9.15304 13.4327 9.29289 13.2929C9.43275 13.153 9.61093 13.0578 9.80491 13.0192C9.99889 12.9806 10.2 13.0004 10.3827 13.0761C10.5654 13.1518 10.7216 13.28 10.8315 13.4444C10.9414 13.6089 11 13.8022 11 14C11 14.2652 10.8946 14.5196 10.7071 14.7071C10.5196 14.8946 10.2652 15 10 15Z" fill="#A3B1E3"/>
<path id="Vector_4" d="M10.5 14.5H9.5V16.5H10.5V14.5Z" fill="#A3B1E3"/>
</g>
</svg>
