<svg width="26" height="27" viewBox="0 0 26 27" fill="none" xmlns="http://www.w3.org/2000/svg">
<g id="Frame 2608867">
<rect y="0.5" width="26" height="26" rx="13" fill="#2042B9"/>
<path id="Union" fill-rule="evenodd" clip-rule="evenodd" d="M12.5 20.0004C12.5 20.2765 12.7239 20.5004 13 20.5004C13.2761 20.5004 13.5 20.2765 13.5 20.0004V13.9999H19.5004C19.7765 13.9999 20.0004 13.776 20.0004 13.4999C20.0004 13.2237 19.7765 12.9999 19.5004 12.9999H13.5V7C13.5 6.72386 13.2761 6.5 13 6.5C12.7239 6.5 12.5 6.72386 12.5 7V12.9999H6.5C6.22386 12.9999 6 13.2237 6 13.4999C6 13.776 6.22386 13.9999 6.5 13.9999H12.5V20.0004Z" fill="white"/>
</g>
</svg>
