<svg width="20" height="20" viewBox="0 0 20 20" fill="none" xmlns="http://www.w3.org/2000/svg">
<g id="icon">
<path id="Icon" d="M8 15.75H13M6.33333 12.8333H14.6667M4.66667 2H16.3333C17.2538 2 18 2.8291 18 3.85185V16.8148C18 17.8376 17.2538 18.6667 16.3333 18.6667H4.66667C3.74619 18.6667 3 17.8376 3 16.8148V3.85185C3 2.8291 3.74619 2 4.66667 2ZM10.498 5.50995C9.91486 4.86067 8.94243 4.68601 8.21179 5.28056C7.48115 5.87511 7.37828 6.86916 7.95206 7.57233C8.52583 8.27551 10.498 9.91667 10.498 9.91667C10.498 9.91667 12.4702 8.27551 13.0439 7.57233C13.6177 6.86916 13.5274 5.86885 12.7842 5.28056C12.041 4.69227 11.0811 4.86067 10.498 5.50995Z" stroke="#2042B9" stroke-width="1.5" stroke-linecap="round" stroke-linejoin="round"/>
</g>
</svg>
