<svg width="20" height="20" viewBox="0 0 20 20" fill="none" xmlns="http://www.w3.org/2000/svg">
<g id="icon">
<g id="Icon">
<path d="M9.5 13.05C10.9083 13.05 12.05 11.9083 12.05 10.5C12.05 9.09167 10.9083 7.95 9.5 7.95C8.09167 7.95 6.95 9.09167 6.95 10.5C6.95 11.9083 8.09167 13.05 9.5 13.05Z" stroke="#2042B9" stroke-width="1.5" stroke-linecap="round" stroke-linejoin="round"/>
<path d="M15.2182 12.8182C15.1153 13.0512 15.0846 13.3098 15.1301 13.5605C15.1755 13.8111 15.295 14.0424 15.4732 14.2245L15.5195 14.2709C15.6632 14.4144 15.7772 14.5849 15.855 14.7725C15.9328 14.9601 15.9728 15.1612 15.9728 15.3643C15.9728 15.5674 15.9328 15.7685 15.855 15.9561C15.7772 16.1438 15.6632 16.3142 15.5195 16.4577C15.376 16.6014 15.2056 16.7154 15.018 16.7932C14.8303 16.871 14.6292 16.911 14.4261 16.911C14.223 16.911 14.0219 16.871 13.8343 16.7932C13.6467 16.7154 13.4763 16.6014 13.3327 16.4577L13.2864 16.4114C13.1042 16.2332 12.8729 16.1137 12.6223 16.0683C12.3716 16.0228 12.1131 16.0535 11.88 16.1564C11.6515 16.2543 11.4565 16.417 11.3192 16.6243C11.1819 16.8316 11.1083 17.0745 11.1073 17.3232V17.4545C11.1073 17.8644 10.9444 18.2575 10.6546 18.5473C10.3648 18.8372 9.9717 19 9.56182 19C9.15194 19 8.75885 18.8372 8.46902 18.5473C8.17919 18.2575 8.01636 17.8644 8.01636 17.4545V17.385C8.01038 17.1292 7.92759 16.8812 7.77876 16.6731C7.62993 16.465 7.42193 16.3065 7.18182 16.2182C6.94875 16.1153 6.69021 16.0846 6.43955 16.1301C6.18888 16.1755 5.95757 16.295 5.77545 16.4732L5.72909 16.5195C5.58556 16.6632 5.41511 16.7772 5.2275 16.855C5.03988 16.9328 4.83878 16.9728 4.63568 16.9728C4.43259 16.9728 4.23148 16.9328 4.04387 16.855C3.85625 16.7772 3.6858 16.6632 3.54227 16.5195C3.39858 16.376 3.28459 16.2056 3.20682 16.018C3.12904 15.8303 3.08901 15.6292 3.08901 15.4261C3.08901 15.223 3.12904 15.0219 3.20682 14.8343C3.28459 14.6467 3.39858 14.4763 3.54227 14.3327L3.58864 14.2864C3.76678 14.1042 3.88628 13.8729 3.93173 13.6223C3.97718 13.3716 3.9465 13.1131 3.84364 12.88C3.74568 12.6515 3.58304 12.4565 3.37572 12.3192C3.16841 12.1819 2.92547 12.1083 2.67682 12.1073H2.54545C2.13557 12.1073 1.74248 11.9444 1.45265 11.6546C1.16282 11.3648 1 10.9717 1 10.5618C1 10.1519 1.16282 9.75885 1.45265 9.46902C1.74248 9.17919 2.13557 9.01636 2.54545 9.01636H2.615C2.87077 9.01038 3.11882 8.92759 3.32691 8.77876C3.535 8.62993 3.69351 8.42193 3.78182 8.18182C3.88468 7.94875 3.91536 7.69021 3.86991 7.43955C3.82446 7.18888 3.70496 6.95757 3.52682 6.77545L3.48045 6.72909C3.33676 6.58556 3.22277 6.41511 3.145 6.2275C3.06722 6.03988 3.02719 5.83878 3.02719 5.63568C3.02719 5.43259 3.06722 5.23148 3.145 5.04387C3.22277 4.85625 3.33676 4.6858 3.48045 4.54227C3.62399 4.39858 3.79443 4.28459 3.98205 4.20682C4.16966 4.12904 4.37077 4.08901 4.57386 4.08901C4.77696 4.08901 4.97807 4.12904 5.16568 4.20682C5.3533 4.28459 5.52374 4.39858 5.66727 4.54227L5.71364 4.58864C5.89575 4.76678 6.12706 4.88628 6.37773 4.93173C6.6284 4.97718 6.88693 4.9465 7.12 4.84364H7.18182C7.41037 4.74568 7.60529 4.58304 7.74258 4.37572C7.87988 4.16841 7.95355 3.92547 7.95455 3.67682V3.54545C7.95455 3.13557 8.11737 2.74248 8.4072 2.45265C8.69703 2.16282 9.09012 2 9.5 2C9.90988 2 10.303 2.16282 10.5928 2.45265C10.8826 2.74248 11.0455 3.13557 11.0455 3.54545V3.615C11.0464 3.86365 11.1201 4.10659 11.2574 4.31391C11.3947 4.52122 11.5896 4.68387 11.8182 4.78182C12.0512 4.88468 12.3098 4.91536 12.5605 4.86991C12.8111 4.82446 13.0424 4.70496 13.2245 4.52682L13.2709 4.48045C13.4144 4.33676 13.5849 4.22277 13.7725 4.145C13.9601 4.06722 14.1612 4.02719 14.3643 4.02719C14.5674 4.02719 14.7685 4.06722 14.9561 4.145C15.1438 4.22277 15.3142 4.33676 15.4577 4.48045C15.6014 4.62399 15.7154 4.79443 15.7932 4.98205C15.871 5.16966 15.911 5.37077 15.911 5.57386C15.911 5.77696 15.871 5.97807 15.7932 6.16568C15.7154 6.3533 15.6014 6.52374 15.4577 6.66727L15.4114 6.71364C15.2332 6.89575 15.1137 7.12706 15.0683 7.37773C15.0228 7.6284 15.0535 7.88693 15.1564 8.12V8.18182C15.2543 8.41037 15.417 8.60529 15.6243 8.74258C15.8316 8.87988 16.0745 8.95355 16.3232 8.95455H16.4545C16.8644 8.95455 17.2575 9.11737 17.5473 9.4072C17.8372 9.69703 18 10.0901 18 10.5C18 10.9099 17.8372 11.303 17.5473 11.5928C17.2575 11.8826 16.8644 12.0455 16.4545 12.0455H16.385C16.1363 12.0464 15.8934 12.1201 15.6861 12.2574C15.4788 12.3947 15.3161 12.5896 15.2182 12.8182Z" stroke="#2042B9" stroke-width="1.5" stroke-linecap="round" stroke-linejoin="round"/>
</g>
</g>
</svg>
