<svg width="20" height="20" viewBox="0 0 20 20" fill="none" xmlns="http://www.w3.org/2000/svg">
<g id="icon">
<path id="Icon" d="M4.16602 8.33343V13.3427C4.16602 13.6418 4.16602 13.7914 4.21156 13.9235C4.25184 14.0402 4.31757 14.1466 4.404 14.2348C4.50174 14.3346 4.63552 14.4015 4.90306 14.5353L9.40306 16.7853C9.62169 16.8946 9.73102 16.9493 9.84568 16.9708C9.94724 16.9898 10.0515 16.9898 10.153 16.9708C10.2677 16.9493 10.377 16.8946 10.5956 16.7853L15.0956 14.5353C15.3632 14.4015 15.497 14.3346 15.5947 14.2348C15.6811 14.1466 15.7469 14.0402 15.7871 13.9235C15.8327 13.7914 15.8327 13.6418 15.8327 13.3427V8.33343M1.66602 7.08343L9.70121 3.06583C9.81053 3.01117 9.86518 2.98384 9.92252 2.97309C9.9733 2.96356 10.0254 2.96356 10.0762 2.97309C10.1335 2.98384 10.1882 3.01117 10.2975 3.06583L18.3327 7.08343L10.2975 11.101C10.1882 11.1557 10.1335 11.183 10.0762 11.1938C10.0254 11.2033 9.9733 11.2033 9.92252 11.1938C9.86518 11.183 9.81053 11.1557 9.70121 11.101L1.66602 7.08343Z" stroke="#2042B9" stroke-width="1.5" stroke-linecap="round" stroke-linejoin="round"/>
</g>
</svg>
