<svg width="6" height="18" viewBox="0 0 6 18" fill="none" xmlns="http://www.w3.org/2000/svg">
<g id="Group">
<path id="Vector" d="M4.86375 13.5H1.77283C1.5635 13.5 1.38237 13.5766 1.22937 13.7294C1.0765 13.8824 1 14.0634 1 14.2727V16.9772C1 17.1864 1.0765 17.3676 1.22937 17.5208C1.3825 17.6734 1.56345 17.75 1.77283 17.75H4.864C5.07299 17.75 5.2542 17.6734 5.40732 17.5208C5.55999 17.3676 5.63653 17.1865 5.63653 16.9772V14.2727C5.63653 14.0634 5.55986 13.8824 5.40703 13.7294C5.25407 13.5765 5.07286 13.5 4.86375 13.5Z" fill="#2042B9"/>
<path id="Vector_2" d="M5.46826 0.479374C5.31936 0.326627 5.14031 0.25 4.93089 0.25H1.06744C0.858199 0.25 0.679234 0.326627 0.530251 0.479374C0.381352 0.632333 0.310942 0.81354 0.318977 1.02279L0.656948 10.2952C0.664983 10.5045 0.747403 10.6858 0.904421 10.8385C1.06135 10.9916 1.24446 11.0682 1.45379 11.0682H4.54497C4.75396 11.0682 4.93703 10.9916 5.09434 10.8385C5.25123 10.6859 5.3334 10.5045 5.34181 10.2952L5.67957 1.02279C5.68795 0.81354 5.6172 0.632502 5.46826 0.479374Z" fill="#2042B9"/>
</g>
</svg>
